<?xml version="1.0" standalone="no"?>
<!DOCTYPE svg PUBLIC "-//W3C//DTD SVG 20010904//EN"
 "http://www.w3.org/TR/2001/REC-SVG-20010904/DTD/svg10.dtd">
<svg version="1.0" xmlns="http://www.w3.org/2000/svg"
 width="260.000000pt" height="260.000000pt" viewBox="0 0 260.000000 260.000000"
 preserveAspectRatio="xMidYMid meet">
<metadata>
Created by potrace 1.14, written by Peter Selinger 2001-2017
</metadata>
<g transform="translate(0.000000,260.000000) scale(0.100000,-0.100000)"
fill="#000000" stroke="none">
<path d="M943 2180 c-33 -13 -43 -42 -43 -119 l0 -70 -410 -3 -410 -3 -27 -28
-28 -27 0 -648 c0 -600 1 -649 18 -679 37 -68 34 -68 517 -71 289 -2 447 0
471 7 53 16 59 39 59 216 l0 155 35 0 35 0 0 -159 c0 -145 2 -161 21 -185 l20
-26 542 0 c410 1 546 4 558 13 41 31 49 70 49 242 l0 165 89 0 c49 0 97 3 106
6 35 14 45 58 45 197 0 180 -1 181 -138 185 l-101 4 -3 276 c-3 302 -7 325
-63 350 -19 9 -140 12 -440 12 l-415 0 0 74 c0 59 -4 78 -21 100 l-20 26 -212
-1 c-117 0 -222 -4 -234 -9z m412 -198 c0 -116 -3 -145 -15 -152 -8 -5 -92
-10 -187 -10 -160 0 -173 1 -183 19 -11 22 -14 274 -3 285 4 3 93 5 197 4
l191 -3 0 -143z m595 -255 c23 -8 37 -20 41 -37 4 -14 7 -242 8 -508 l1 -483
-25 -25 -25 -25 -341 3 c-324 3 -341 4 -355 22 -10 15 -14 55 -14 163 l0 143
-172 -2 -173 -3 -6 -150 c-4 -82 -7 -151 -8 -153 0 -2 -17 -10 -36 -18 -45
-19 -610 -20 -665 -1 -61 21 -60 14 -58 542 3 436 5 483 20 507 10 15 28 29
40 31 13 2 408 5 878 5 638 1 864 -2 890 -11z m564 -443 c13 -5 16 -25 16
-119 0 -62 -3 -120 -6 -129 -5 -14 -32 -16 -194 -16 -104 0 -200 4 -214 10
-26 9 -26 10 -26 124 0 99 2 116 18 125 18 11 379 15 406 5z"/>
<path d="M238 1669 c-56 -21 -58 -38 -58 -486 0 -368 2 -411 18 -443 l17 -35
286 -3 285 -2 25 26 24 26 3 434 3 435 -30 29 -29 30 -259 -1 c-142 0 -270 -5
-285 -10z m369 -146 c76 -39 102 -144 85 -348 -11 -124 -42 -210 -101 -278
-74 -84 -311 -108 -311 -30 0 18 66 501 81 598 6 39 17 73 23 77 22 16 182 2
223 -19z"/>
<path d="M450 1465 c0 -14 -32 -238 -40 -280 -5 -27 -14 -88 -19 -135 -6 -47
-13 -100 -17 -117 -6 -33 -6 -33 31 -33 83 0 122 38 171 166 22 58 28 90 32
199 l4 131 -30 31 c-29 28 -68 43 -113 43 -11 0 -19 -2 -19 -5z"/>
<path d="M1354 1670 c-12 -4 -31 -21 -43 -36 -21 -26 -21 -33 -21 -443 0 -376
2 -419 18 -451 l17 -35 286 -3 285 -2 25 26 24 26 3 434 3 435 -30 29 -29 30
-259 -1 c-142 0 -268 -4 -279 -9z m476 -135 c4 -10 3 -39 -1 -64 -4 -25 -10
-68 -13 -96 -12 -91 -66 -479 -72 -512 -2 -18 -8 -33 -12 -34 -4 0 -16 -2 -27
-4 -11 -2 -27 0 -35 5 -12 7 -12 27 3 143 10 74 20 146 23 161 l5 27 -93 -3
-93 -3 -17 -120 c-27 -197 -29 -205 -36 -203 -4 1 -15 -2 -25 -7 -12 -5 -24
-2 -34 8 -14 13 -11 49 31 357 25 187 48 345 51 351 9 14 72 11 78 -4 3 -7 -3
-69 -14 -138 -10 -68 -19 -130 -19 -137 0 -10 22 -12 92 -10 l92 3 17 122 c9
66 19 132 23 146 9 38 64 46 76 12z"/>
<path d="M933 1263 c-9 -3 -13 -30 -13 -86 1 -120 28 -147 150 -147 74 0 123
16 134 45 9 25 7 168 -3 183 -5 8 -17 12 -27 10 -16 -3 -19 -14 -22 -83 -2
-48 -8 -82 -15 -87 -18 -11 -115 -10 -138 2 -16 9 -19 22 -19 80 0 56 -3 71
-17 78 -10 5 -24 7 -30 5z"/>
</g>
</svg>
